<?xml version="1.0" encoding="UTF-8" standalone="no"?>
<svg xmlns="http://www.w3.org/2000/svg" viewBox="46.19 40.02 408.71 103.73" preserveAspectRatio="xMidYMid">
  <clipPath id="a">
    <path d="M.3.3h539.4v719.15H.3z"/>
  </clipPath>
  <rect x="46.19" y="40.02" width="100%" height="100%" fill="#FFF"/>
  <g clip-path="url(#a)">
    <text text-rendering="geometricPrecision">
      <tspan x="46.19" y="100.63" font-family="Arial" font-size="10">X</tspan>
    </text>
    <text text-rendering="geometricPrecision">
      <tspan x="58.66" y="122.22" font-family="Arial" font-size="10">Y</tspan>
    </text>
    <path d="M49.48 102.3h.6v8.98l-.3.17-.3.17z" fill-rule="evenodd" shape-rendering="geometricPrecision"/>
    <path stroke="#000" stroke-width=".6" d="M52.37 102.3v7.65"/>
    <path d="M49.48 111.62l.3-.17.3-.17 8.18 4.72-.15.26-.15.26zM66.64 116.46l-.15-.26-.15-.26 8.08-4.66.3.17.3.17z" fill-rule="evenodd" shape-rendering="geometricPrecision"/>
    <path stroke="#000" stroke-width=".6" d="M65.5 114.5l7.25-4.19"/>
    <path d="M75.02 111.62l-.3-.17-.3-.17V97.22l.3-.17.3.17z" fill-rule="evenodd" shape-rendering="geometricPrecision"/>
    <path d="M74.72 96.7v.35l-.3.17-12.17-7.02v-.7z" fill-rule="evenodd" shape-rendering="geometricPrecision"/>
    <path stroke="#000" stroke-width=".6" d="M72.13 98.55l-9.88-5.71"/>
    <path d="M62.25 89.5v.7l-8.11 4.68-.15-.26-.15-.26z" fill-rule="evenodd" shape-rendering="geometricPrecision"/>
    <text text-rendering="geometricPrecision">
      <tspan x="83.68" y="93.43" font-family="Arial" font-size="10">Br</tspan>
    </text>
    <path d="M75.02 97.22l-.3-.17v-.35l8.24-4.76.15.26.15.26z" fill-rule="evenodd" shape-rendering="geometricPrecision"/>
    <path stroke="#000" stroke-width=".6" d="M138.25 104.25h-31"/>
    <path d="M142.5 104.25l-6-1.5c1.19.84 1.19 2.16 0 3z" fill-rule="evenodd" shape-rendering="geometricPrecision"/>
    <text text-rendering="geometricPrecision">
      <tspan x="114" y="98.25" font-family="Arial" font-size="10">N-BuLi</tspan>
    </text>
    <text text-rendering="geometricPrecision">
      <tspan x="158.69" y="99.88" font-family="Arial" font-size="10">X</tspan>
    </text>
    <text text-rendering="geometricPrecision">
      <tspan x="171.16" y="121.47" font-family="Arial" font-size="10">Y</tspan>
    </text>
    <path d="M161.98 101.5h.6v9.03l-.3.17-.3.17z" fill-rule="evenodd" shape-rendering="geometricPrecision"/>
    <path stroke="#000" stroke-width=".6" d="M164.87 101.5v7.7"/>
    <path d="M161.98 110.87l.3-.17.3-.17 8.18 4.72-.15.26-.15.26zM179.14 115.71l-.15-.26-.15-.26 8.08-4.66.3.17.3.17z" fill-rule="evenodd" shape-rendering="geometricPrecision"/>
    <path stroke="#000" stroke-width=".6" d="M178 113.75l7.25-4.19"/>
    <path d="M187.52 110.87l-.3-.17-.3-.17V96.47l.3-.17.3.17z" fill-rule="evenodd" shape-rendering="geometricPrecision"/>
    <path d="M187.22 95.95v.35l-.3.17-12.17-7.02v-.7z" fill-rule="evenodd" shape-rendering="geometricPrecision"/>
    <path stroke="#000" stroke-width=".6" d="M184.63 97.8l-9.88-5.71"/>
    <path d="M174.75 88.75v.7l-8.11 4.68-.15-.26-.15-.26zM187.52 96.47l-.3-.17v-.35l8.64-4.99.15.26.15.26z" fill-rule="evenodd" shape-rendering="geometricPrecision"/>
    <text text-rendering="geometricPrecision">
      <tspan x="196.64" y="92.68" font-family="Arial" font-size="10">Li</tspan>
    </text>
    <path d="M245.23 52.22l.3-.17.3.17v14.06l-.3.17-.3.17z" fill-rule="evenodd" shape-rendering="geometricPrecision"/>
    <path stroke="#000" stroke-width=".6" d="M248.12 53.55v11.4"/>
    <path d="M245.23 66.62l.3-.17.3-.17L258 73.3v.7zM258 74v-.7l12.17-7.02.3.17v.35z" fill-rule="evenodd" shape-rendering="geometricPrecision"/>
    <path stroke="#000" stroke-width=".6" d="M258 70.66l9.88-5.71"/>
    <path d="M270.77 66.28l-.3.17-.3-.17V52.22l.3-.17.3-.17z" fill-rule="evenodd" shape-rendering="geometricPrecision"/>
    <path d="M270.77 51.88l-.3.17-.3.17L258 45.2v-.7z" fill-rule="evenodd" shape-rendering="geometricPrecision"/>
    <path stroke="#000" stroke-width=".6" d="M267.88 53.55L258 47.84"/>
    <path d="M258 44.5v.7l-12.17 7.02-.3-.17v-.35zM270.47 66.8v-.35l.3-.17 12.17 7.02v.7z" fill-rule="evenodd" shape-rendering="geometricPrecision"/>
    <path d="M282.94 74v-.7l12.17-7.02.3.17v.35zM295.41 66.8v-.35l.3-.17 12.17 7.02v.35l-.3.17z" fill-rule="evenodd" shape-rendering="geometricPrecision"/>
    <path stroke="#000" stroke-width=".6" d="M298 64.95l9.88 5.71"/>
    <path d="M308.18 73.82l-.3-.17v-.35l12.17-7.02.3.17.3.17z" fill-rule="evenodd" shape-rendering="geometricPrecision"/>
    <path d="M320.65 66.62l-.3-.17-.3-.17V52.22l.3-.17.3-.17z" fill-rule="evenodd" shape-rendering="geometricPrecision"/>
    <path stroke="#000" stroke-width=".6" d="M317.76 64.95v-11.4"/>
    <path d="M320.65 51.88l-.3.17-.3.17-12.17-7.02v-.7z" fill-rule="evenodd" shape-rendering="geometricPrecision"/>
    <path d="M307.88 44.5v.7l-12.17 7.02-.3-.17-.3-.17z" fill-rule="evenodd" shape-rendering="geometricPrecision"/>
    <path stroke="#000" stroke-width=".6" d="M307.88 47.84L298 53.55"/>
    <path d="M295.11 51.88l.3.17.3.17v14.06l-.3.17-.3-.17z" fill-rule="evenodd" shape-rendering="geometricPrecision"/>
    <text text-rendering="geometricPrecision">
      <tspan x="279.04" y="91.67" font-family="Arial" font-size="10">O</tspan>
    </text>
    <path stroke="#000" stroke-width=".6" d="M284.24 73.65v9.15"/>
    <path d="M281.94 73.42l-.6-.35v9.73h.6zM284.54 73.07l-.6.35v9.38h.6z" fill-rule="evenodd" shape-rendering="geometricPrecision"/>
    <path stroke="#000" stroke-width=".6" d="M344.55 105H213"/>
    <path d="M348.8 105l-6-1.5c1.19.84 1.19 2.16 0 3zM379.48 84.47l.3-.17.3.17v14.06l-.3.17-.3.17z" fill-rule="evenodd" shape-rendering="geometricPrecision"/>
    <path stroke="#000" stroke-width=".6" d="M382.37 85.8v11.4"/>
    <path d="M379.48 98.87l.3-.17.3-.17 12.17 7.02v.7z" fill-rule="evenodd" shape-rendering="geometricPrecision"/>
    <g fill-rule="evenodd" shape-rendering="geometricPrecision">
      <path d="M401.83 97l.22-.05.05.2.1.2.05.2-.2.05-.2.1-.23.1-.04.1-.23.1-.23.1-.04.1-.23.1-.2.1-.23.1-.04.1-.23.1-.2.1-.22.1-.06.1-.22.1-.2.1-.23.1-.04.1-.23.1-.23.1-.04.1-.23.1-.2.1-.22.1-.06.1-.22.1-.2.1-.23.1-.04.1-.23.1-.23.1-.04.1-.23.1-.2.1-.23.1-.04.1-.23.1-.2.1-.22.1-.06.1-.22.1-.2.1-.23.1-.04.1-.23.1-.23.1-.04.1-.23.1-.2.1-.22.1-.06.1-.22.1-.2.1-.23.1-.04.1-.23.05-.05-.2-.05-.05-.05-.05-.05-.3.2-.05.2-.1.22-.1.06-.1.22-.1.22-.1.06-.1.22-.1.2-.1.23-.1.04-.1.23-.1.2-.1.22-.1.06-.1.22-.1.2-.1.23-.1.04-.1.23-.1.23-.1.04-.1.23-.1.2-.1.23-.1.04-.1.23-.1.2-.1.22-.1.06-.1.22-.1.22-.1.06-.1.22-.1.2-.1.23-.1.04-.1.23-.1.2-.1.22-.1.06-.1.22-.1.2-.1.23-.1.04-.1.23-.1.23-.1.04-.1.23-.1.2-.1.23-.1.04-.1.23-.1.2-.1.22-.1zM404.23 98.6h.32l.2.05-.05.4-.03.05-.22.1-.22.1-.06.1-.22.1-.2.1-.23.1-.04.1-.23.1-.2.1-.22.1-.06.1-.22.1-.2.1-.23.1-.04.1-.23.1-.23.1-.04.1-.23.1-.2.1-.23.1-.04.1-.23.1-.2.1-.22.1-.06.1-.22.1-.2.1-.23.1-.04.1-.23.1-.23.1-.04.1-.23.1-.2.1-.22.1-.06.1-.22.1-.2.1-.23.1-.04.1-.23.1-.23.1-.04.1-.23.1-.2.1-.23.1-.04.1-.23.1-.2.1-.22.1-.06.1-.22.1-.2.1-.23.1-.04.1-.23.1-.23.1-.04.1-.23.1-.2.1-.22.1-.06.1-.22.1-.2.1-.23.1-.04.1-.23.1-.2.1-.23.1-.07.1-.05.05v-.7l.03-.05.25-.1.04-.1.23-.1.2-.1.22-.1.06-.1.22-.1.2-.1.23-.1.04-.1.23-.1.23-.1.04-.1.23-.1.2-.1.22-.1.06-.1.22-.1.2-.1.23-.1.04-.1.23-.1.2-.1.23-.1.04-.1.23-.1.23-.1.04-.1.23-.1.2-.1.22-.1.06-.1.22-.1.2-.1.23-.1.04-.1.23-.1.23-.1.04-.1.23-.1.2-.1.22-.1.06-.1.22-.1.2-.1.23-.1.04-.1.23-.1.2-.1.23-.1.04-.1.23-.1.23-.1.04-.1.23-.1.2-.1.22-.1.06-.1.22-.1.2-.1.23-.1.04-.1.23-.1.23-.1.04-.1.23-.1.2-.1.22-.1z"/>
    </g>
    <path d="M405.02 98.53l-.3.17-.3-.17V84.47l.3-.17.3-.17z" fill-rule="evenodd" shape-rendering="geometricPrecision"/>
    <path d="M405.02 84.13l-.3.17-.3.17-12.17-7.02v-.7z" fill-rule="evenodd" shape-rendering="geometricPrecision"/>
    <path stroke="#000" stroke-width=".6" d="M402.13 85.8l-9.88-5.71"/>
    <path d="M392.25 76.75v.7l-12.17 7.02-.3-.17v-.35zM404.72 99.05v-.35l.3-.17 12.17 7.02v.35l-.49.06z" fill-rule="evenodd" shape-rendering="geometricPrecision"/>
    <path d="M417.6 106.01l-.41-.11v-.35l12.17-7.02.3.17v.35zM429.66 99.05v-.35l.3-.17 12.17 7.02v.35l-.3.17z" fill-rule="evenodd" shape-rendering="geometricPrecision"/>
    <path stroke="#000" stroke-width=".6" d="M432.25 97.2l9.88 5.71"/>
    <path d="M442.43 106.07l-.3-.17v-.35l12.17-7.02.3.17.3.17z" fill-rule="evenodd" shape-rendering="geometricPrecision"/>
    <g>
      <path d="M454.9 98.87l-.3-.17-.3-.17V84.47l.3-.17.3-.17z" fill-rule="evenodd" shape-rendering="geometricPrecision"/>
      <path stroke="#000" stroke-width=".6" d="M452.01 97.2V85.8"/>
    </g>
    <g>
      <path d="M454.9 84.13l-.3.17-.3.17-12.17-7.02v-.7z" fill-rule="evenodd" shape-rendering="geometricPrecision"/>
    </g>
    <g>
      <path d="M442.13 76.75v.7l-12.17 7.02-.3-.17-.3-.17z" fill-rule="evenodd" shape-rendering="geometricPrecision"/>
      <path stroke="#000" stroke-width=".6" d="M442.13 80.09l-9.88 5.71"/>
    </g>
    <g>
      <path d="M429.36 84.13l.3.17.3.17v14.06l-.3.17-.3-.17z" fill-rule="evenodd" shape-rendering="geometricPrecision"/>
    </g>
    <g>
      <path d="M416.7 105.96l.49-.06-.06.49-9.79 9.78-.33-.09-.09-.33z" fill-rule="evenodd" shape-rendering="geometricPrecision"/>
    </g>
    <g>
      <text text-rendering="geometricPrecision">
        <tspan x="420.49" y="122" font-family="Arial" font-size="10">OH</tspan>
      </text>
    </g>
    <g>
      <path d="M417.13 106.39l.06-.49.41.11 4.36 7.55-.26.15-.26.15z" fill-rule="evenodd" shape-rendering="geometricPrecision"/>
    </g>
    <g>
      <text text-rendering="geometricPrecision">
        <tspan x="379.32" y="126.11" font-family="Arial" font-size="10">X</tspan>
      </text>
    </g>
    <g>
      <text text-rendering="geometricPrecision">
        <tspan x="396.96" y="143.75" font-family="Arial" font-size="10">Y</tspan>
      </text>
    </g>
    <g>
      <path d="M406.92 115.75l.09.33-.24.25-13.58-3.64-.09-.33-.09-.33z" fill-rule="evenodd" shape-rendering="geometricPrecision"/>
      <path stroke="#000" stroke-width=".6" d="M404.89 118.2l-11.01-2.95"/>
    </g>
    <g>
      <path d="M393.01 112.03l.09.33.09.33-6.05 6.05-.21-.21-.21-.21z" fill-rule="evenodd" shape-rendering="geometricPrecision"/>
    </g>
    <g>
      <path d="M384.02 127.82l.29-.07.29-.08 2.29 8.53-.25.25-.25.25z" fill-rule="evenodd" shape-rendering="geometricPrecision"/>
      <path stroke="#000" stroke-width=".6" d="M386.76 127.09l1.95 7.29"/>
    </g>
    <g>
      <path d="M386.39 136.7l.25-.25.25-.25 9.44 2.53-.08.29-.07.29z" fill-rule="evenodd" shape-rendering="geometricPrecision"/>
    </g>
    <g>
      <path d="M404.74 136.4l-.21-.21-.21-.21 6.09-6.08.33.09.33.09z" fill-rule="evenodd" shape-rendering="geometricPrecision"/>
      <path stroke="#000" stroke-width=".6" d="M403.02 134.67l5.33-5.32"/>
    </g>
    <g>
      <path d="M411.07 130.08l-.33-.09-.33-.09-3.64-13.57.24-.25.33.09z" fill-rule="evenodd" shape-rendering="geometricPrecision"/>
    </g>
  </g>
  <text style="line-height:1.25;-inkscape-font-specification:'sans-serif, Normal';font-variant-ligatures:normal;font-variant-caps:normal;font-variant-numeric:normal;font-feature-settings:normal;text-align:end" x="156.359" y="130.906" font-weight="400" font-size="12" font-family="Arial" letter-spacing="0" word-spacing="0" text-anchor="end">
    <tspan x="156.359" y="130.906">X,Y = C or N</tspan>
  </text>
</svg>
